# xmcd
#
# Track frame offsets:
#	180
#	52985
#	68655
#	123315
#
# Disc length: 1890 seconds
#
# Revision: 1
# Processed by: cddbd v1.5.1PL2 Copyright (c) Steve Scherf et al.
# Submitted via: dBpowerAMP V4.0
#
DISCID=2d076004
DTITLE=EMILE  VOLEL - POT POURRI
DYEAR=1900
DGENRE=Zouk
TTITLE0=POT POURRI ESPAGNOL
TTITLE1=PLAZOS TRAICIONEROS
TTITLE2=POT POURRI FRANCAIS
TTITLE3=MA BRUNE 
EXTD=
EXTT0=
EXTT1=
EXTT2=
EXTT3=
PLAYORDER=
